<?xml version="1.0" standalone="no"?>
<!DOCTYPE svg PUBLIC "-//W3C//DTD SVG 20010904//EN"
 "http://www.w3.org/TR/2001/REC-SVG-20010904/DTD/svg10.dtd">
<svg version="1.0" xmlns="http://www.w3.org/2000/svg"
 width="250.000000pt" height="180.000000pt" viewBox="0 0 250.000000 180.000000"
 preserveAspectRatio="xMidYMid meet">

<g transform="translate(0.000000,180.000000) scale(0.100000,-0.100000)"
fill="#000000" stroke="none">
<path d="M1070 1690 c-12 -8 -9 -10 14 -10 24 0 27 -2 16 -15 -7 -9 -10 -18
-6 -22 3 -3 6 -1 6 5 0 7 5 12 11 12 5 0 7 -4 4 -10 -3 -5 -1 -10 5 -10 6 0
10 12 8 28 -3 29 -31 40 -58 22z"/>
<path d="M1298 1634 c-10 -21 -9 -27 3 -35 24 -15 39 -10 39 12 0 15 5 19 15
15 18 -7 20 5 3 22 -20 20 -48 14 -60 -14z"/>
<path d="M1130 1600 c0 -6 -7 -10 -16 -8 -25 4 -31 -49 -7 -55 17 -4 17 -5 1
-6 -22 -1 -22 -9 -3 -54 8 -20 15 -48 15 -62 0 -15 6 -25 14 -25 11 0 14 12
10 54 -4 50 -3 54 15 49 14 -4 20 -16 23 -49 2 -24 -1 -46 -7 -48 -5 -3 -1 -5
10 -5 16 -1 21 6 23 29 1 19 -2 30 -10 30 -9 0 -8 3 2 10 12 8 13 11 1 19 -10
7 -10 10 -1 13 18 6 -22 93 -49 107 -15 8 -21 9 -21 1z m54 -66 c3 -8 2 -12
-4 -9 -6 3 -10 10 -10 16 0 14 7 11 14 -7z m-47 -16 c-3 -8 -6 -5 -6 6 -1 11
2 17 5 13 3 -3 4 -12 1 -19z"/>
<path d="M986 1592 c-3 -5 1 -9 9 -9 8 0 12 4 9 9 -3 4 -7 8 -9 8 -2 0 -6 -4
-9 -8z"/>
<path d="M1400 1567 c0 -2 15 -16 33 -33 l32 -29 -29 33 c-28 30 -36 37 -36
29z"/>
<path d="M1369 1533 c-13 -16 -12 -17 4 -4 9 7 17 15 17 17 0 8 -8 3 -21 -13z"/>
<path d="M1426 1485 c-11 -8 -15 -15 -9 -15 6 0 16 7 23 15 16 19 11 19 -14 0z"/>
<path d="M920 1330 c0 -5 14 -10 30 -10 17 0 30 5 30 10 0 6 -13 10 -30 10
-16 0 -30 -4 -30 -10z"/>
<path d="M1440 1330 c0 -5 11 -10 24 -10 14 0 28 5 31 10 4 6 -7 10 -24 10
-17 0 -31 -4 -31 -10z"/>
<path d="M1510 1273 c-21 -8 -30 -24 -30 -53 0 -20 2 -22 10 -10 8 12 10 12
10 1 0 -19 11 -7 14 16 2 13 10 17 26 15 18 -3 21 0 16 13 -3 9 -6 19 -6 21 0
5 -21 4 -40 -3z"/>
<path d="M1440 1167 c-34 -17 -40 -71 -11 -87 12 -6 21 -15 21 -21 0 -5 7 -26
15 -46 l15 -36 23 19 22 19 -20 -23 -19 -24 24 -18 c13 -10 40 -21 60 -24 38
-6 251 2 259 9 2 3 -5 5 -17 5 -15 0 -34 21 -68 75 -26 41 -56 77 -67 81 -14
4 -30 -5 -59 -32 -35 -35 -40 -37 -49 -21 -6 9 -14 15 -18 13 -5 -3 -6 6 -3
19 4 21 7 23 24 14 18 -10 19 -8 12 28 -10 54 -12 56 -64 49 -29 -4 -50 -2
-52 3 -2 7 -12 6 -28 -2z m257 -159 c18 -18 33 -35 33 -39 0 -4 -17 -3 -37 2
-21 5 -54 9 -73 9 l-35 1 35 29 c19 17 36 30 39 30 3 0 20 -14 38 -32z"/>
<path d="M872 1037 c-27 -29 -28 -61 -2 -87 19 -19 33 -20 260 -20 153 0 240
4 240 10 0 6 -86 10 -238 10 -172 0 -241 3 -250 12 -18 18 -14 56 7 68 12 6
110 10 250 10 147 0 231 4 231 10 0 6 -86 10 -238 10 -236 0 -239 0 -260 -23z"/>
<path d="M738 998 c-17 -6 -25 -14 -21 -24 3 -7 10 -11 17 -7 25 16 47 12 56
-10 9 -22 9 -22 9 3 1 33 -26 50 -61 38z"/>
<path d="M779 901 c-13 -11 -19 -20 -13 -21 15 0 50 27 43 34 -3 4 -17 -2 -30
-13z"/>
<path d="M784 821 c3 -5 15 -7 26 -4 28 7 25 13 -6 13 -14 0 -23 -4 -20 -9z"/>
<path d="M746 711 c-4 -6 -27 -19 -51 -30 -25 -11 -45 -24 -46 -28 -4 -37 -8
-55 -23 -102 -12 -34 -25 -55 -37 -58 -29 -8 -13 -21 17 -15 16 3 29 13 32 26
6 20 6 20 12 -4 4 -17 1 -29 -9 -37 -23 -17 -7 -27 18 -11 14 8 21 23 21 44 0
17 3 52 6 78 6 38 12 50 35 61 15 8 41 15 56 15 37 0 50 10 54 40 4 23 0 25
-38 28 -22 2 -44 -2 -47 -7z"/>
<path d="M1815 501 c-4 -7 -1 -10 7 -9 7 2 12 -5 11 -16 -1 -13 2 -15 10 -7 8
8 7 15 -5 27 -11 11 -18 13 -23 5z"/>
<path d="M884 256 c-39 -39 -45 -86 -19 -136 31 -60 33 -60 495 -60 273 0 420
3 420 10 0 7 -149 10 -426 10 l-426 0 -29 29 c-31 31 -37 68 -19 115 19 50 26
51 475 56 l420 5 -428 3 -429 2 -34 -34z"/>
</g>
</svg>
